# xmcd
#
# Track frame offsets:
#	150
#	12406
#	22856
#	36942
#	52797
#	67056
#	83524
#	98641
#	113444
#	129320
#	147209
#	165865
#	174322
#	188031
#	204618
#
# Disc length: 2915 seconds
#
# Revision: 1
# Processed by: cddbd v1.5.2PL0 Copyright (c) Steve Scherf et al.
# Submitted via: audiograbber 1.83.01
#
DISCID=ae0b610f
DTITLE=Circuit Rider Records - Vloumne 33
DYEAR=1900
DGENRE=
TTITLE0=Merle Haggard - What Would It Take
TTITLE1=Merle Haggard and Albert E. Brumley Jr. - The Old Drover's Prayer
TTITLE2=Harlon Burton - Move That Mountain
TTITLE3=Stu Phillips - You Love The Hurt Away
TTITLE4=James Windrow - King Of Kings
TTITLE5=Ernie Ashworth - A World Of Light
TTITLE6=Bill Townsend - Crowns At Jesus Feet
TTITLE7=Ron Hughes - The Hand That reaches out
TTITLE8=W.C Taylor - Lord, You're My Hero
TTITLE9=Dobbie Poyner and Steve White - Mercy Met me On My Knees
TTITLE10=Travis Lewis - Lazarus
TTITLE11=Tony McGill - I Want It All
TTITLE12=Gar Douglas Warlick - Healing Health and Wholeness
TTITLE13=Echoes Of Praise - Here I am At the Cross Again
TTITLE14=The McAlecs - Read The Book
EXTD=
EXTT0=
EXTT1=
EXTT2=
EXTT3=
EXTT4=
EXTT5=
EXTT6=
EXTT7=
EXTT8=
EXTT9=
EXTT10=
EXTT11=
EXTT12=
EXTT13=
EXTT14=
PLAYORDER=
